<?xml version="1.0" encoding="UTF-8"?><!DOCTYPE svg><?xml version="1.0" encoding="utf-8"?>
<!-- Generator: Adobe Illustrator 26.0.2, SVG Export Plug-In . SVG Version: 6.00 Build 0)  -->
<svg xmlns="http://www.w3.org/2000/svg" version="1.1" id="Layer_1" xmlns:_xmlns="xmlns" _xmlns:xlink="http://www.w3.org/1999/xlink" x="0px" y="0px" viewBox="0 0 184.9 183" style="enable-background:new 0 0 184.9 183;" xml:space="preserve" height="20" width="20">
<style xmlns="http://www.w3.org/2000/svg" type="text/css">
&#x9;.st0{fill:#4279F4;}
&#x9;.st1{fill:#0028AA;}
&#x9;.st2{fill:#014BD1;}
&#x9;.st3{fill:#BEDCFF;}
&#x9;.st4{fill:#6CA1FF;}
&#x9;.st5{fill:#A1C3FF;}
</style>
<path xmlns="http://www.w3.org/2000/svg" class="st0" d="M51.4,62.1l4.1,102.1l73.8-94.1c1.1-1.4,2.8-2.3,4.6-2.6c1.8-0.2,3.6,0.3,5,1.4l46,36.9l-15-65.6L51.4,62.1z"></path>
<polygon xmlns="http://www.w3.org/2000/svg" class="st1" points="58.1,183 123.5,183 83.3,150.8 "></polygon>
<polygon xmlns="http://www.w3.org/2000/svg" class="st2" points="135.7,83.9 91.7,140.1 138.6,177.7 183.1,121.9 "></polygon>
<polygon xmlns="http://www.w3.org/2000/svg" class="st3" points="39.1,52.3 39.1,52.3 77.8,3.8 15.4,33.8 0,101.3 "></polygon>
<polygon xmlns="http://www.w3.org/2000/svg" class="st4" points="0.9,122 42.3,174 38.4,75 "></polygon>
<polygon xmlns="http://www.w3.org/2000/svg" class="st5" points="157.8,28.7 98.2,0 61.1,46.6 "></polygon>
</svg>